<svg xmlns="http://www.w3.org/2000/svg" viewBox="0 0 25 28" width="25" height="28">
	<defs>
		<clipPath clipPathUnits="userSpaceOnUse" id="cp1">
			<path d="M-1,27h27v-27h-27z" />
		</clipPath>
	</defs>
	<style>
		tspan { white-space:pre }
		.shp0 { fill: #EDBF85 }
	</style>
	<g id="Mask Group 15" clip-path="url(#cp1)">
		<path id="closed-diary" class="shp0" d="M24.43,3.93v4.83c0,0.3 -0.09,0.57 -0.24,0.8c0.15,0.23 0.24,0.5 0.24,0.8v4.83c0,0.3 -0.09,0.57 -0.24,0.8c0.15,0.23 0.24,0.5 0.24,0.8v4.83c0,0.79 -0.64,1.44 -1.44,1.44h-0.88v3.3c0,0.35 -0.29,0.64 -0.64,0.64h-18.04c-0.35,0 -0.64,-0.29 -0.64,-0.64v-2.15h-1.59c-0.35,0 -0.64,-0.29 -0.64,-0.64c0,-0.35 0.29,-0.64 0.64,-0.64h1.59v-2.08h-1.59c-0.35,0 -0.64,-0.29 -0.64,-0.64c0,-0.35 0.29,-0.64 0.64,-0.64h1.59v-2.08h-1.59c-0.35,0 -0.64,-0.29 -0.64,-0.64c0,-0.35 0.29,-0.64 0.64,-0.64h1.59v-2.08h-1.59c-0.35,0 -0.64,-0.29 -0.64,-0.64c0,-0.35 0.29,-0.64 0.64,-0.64h1.59v-2.08h-1.59c-0.35,0 -0.64,-0.29 -0.64,-0.64c0,-0.35 0.29,-0.64 0.64,-0.64h1.59v-2.08h-1.59c-0.35,0 -0.64,-0.29 -0.64,-0.64c0,-0.35 0.29,-0.64 0.64,-0.64h1.59v-2.08h-1.59c-0.35,0 -0.64,-0.29 -0.64,-0.64c0,-0.35 0.29,-0.64 0.64,-0.64h1.59v-2.15c0,-0.35 0.29,-0.64 0.64,-0.64h18.04c0.35,0 0.64,0.29 0.64,0.64v1.86h0.88c0.79,0 1.44,0.64 1.44,1.44zM17.34,5.74h-9.09c-0.4,0 -0.72,0.32 -0.72,0.72v4.97c0,0.4 0.32,0.72 0.72,0.72h9.09c0.4,0 0.72,-0.32 0.72,-0.72v-4.97c0,-0.4 -0.32,-0.72 -0.72,-0.72zM23.16,16.8c0,-0.09 -0.07,-0.16 -0.16,-0.16h-0.88v5.16h0.88c0.09,0 0.16,-0.07 0.16,-0.16zM23.16,3.93c0,-0.09 -0.07,-0.16 -0.16,-0.16h-0.88v5.16h0.88c0.09,0 0.16,-0.07 0.16,-0.16zM17.19,7.8c0,0.35 -0.29,0.64 -0.64,0.64h-7.51c-0.35,0 -0.64,-0.29 -0.64,-0.64c0,-0.35 0.29,-0.64 0.64,-0.64h7.51c0.35,0 0.64,0.29 0.64,0.64zM17.19,10.09c0,0.35 -0.29,0.64 -0.64,0.64h-7.51c-0.35,0 -0.64,-0.29 -0.64,-0.64c0,-0.35 0.29,-0.64 0.64,-0.64h7.51c0.35,0 0.64,0.29 0.64,0.64z" />
	</g>
</svg>
