<svg xmlns="http://www.w3.org/2000/svg" viewBox="0 0 29 29" width="29" height="29">
	<defs>
		<clipPath clipPathUnits="userSpaceOnUse" id="cp1">
			<path d="M1,28h27v-27h-27z" />
		</clipPath>
	</defs>
	<style>
		tspan { white-space:pre }
		.shp0 { fill: #000000;stroke: #707070;stroke-width: 0.066 }
	</style>
	<g id="Mask Group 7" clip-path="url(#cp1)">
		<g id="user-silhouette">
			<g id="Group 17">
				<path id="Path 21" class="shp0" d="M14.5,15.3c3.34,0 6.05,-3.17 6.05,-7.09c0,-5.43 -2.71,-7.09 -6.05,-7.09c-3.34,0 -6.05,1.66 -6.05,7.09c0,3.91 2.71,7.09 6.05,7.09z" />
				<path id="Path 22" class="shp0" d="M27.87,25.73l-3.05,-6.88c-0.14,-0.31 -0.39,-0.58 -0.69,-0.74l-4.74,-2.47c-0.1,-0.05 -0.23,-0.04 -0.33,0.03c-1.34,1.01 -2.92,1.55 -4.56,1.55c-1.64,0 -3.22,-0.54 -4.56,-1.55c-0.09,-0.07 -0.22,-0.08 -0.33,-0.03l-4.74,2.47c-0.31,0.16 -0.55,0.42 -0.69,0.74l-3.05,6.88c-0.21,0.47 -0.17,1.02 0.12,1.45c0.28,0.43 0.76,0.69 1.28,0.69h23.94c0.52,0 1,-0.26 1.28,-0.69c0.28,-0.43 0.33,-0.98 0.12,-1.45z" />
			</g>
		</g>
	</g>
</svg>
