<svg xmlns="http://www.w3.org/2000/svg" viewBox="0 0 27 27" width="27" height="27">
	<defs>
		<clipPath clipPathUnits="userSpaceOnUse" id="cp1">
			<path d="M0,27h27v-27h-27z" />
		</clipPath>
	</defs>
	<style>
		tspan { white-space:pre }
		.shp0 { fill: #000000 }
	</style>
	<g id="Mask Group 2" clip-path="url(#cp1)">
		<g id="pie-chart">
			<path id="Path 4" class="shp0" d="M26.97,12.57c-0.46,-6.69 -5.84,-12.08 -12.54,-12.54l-0.48,-0.03v13.05h13.05z" />
			<path id="Path 5" class="shp0" d="M23.1,22.99l0.32,-0.34c2.08,-2.25 3.34,-5.17 3.54,-8.22l0.03,-0.48h-12.94z" />
			<path id="Path 6" class="shp0" d="M11.25,2.02v12.94l0.53,0.53l7.93,7.93c-1.85,1.16 -4.01,1.79 -6.21,1.79c-6.45,0 -11.7,-5.25 -11.7,-11.7c0,-5.64 4.05,-10.43 9.45,-11.48zM13.05,0l-0.48,0.03c-7.05,0.48 -12.57,6.4 -12.57,13.47c0,7.44 6.06,13.5 13.5,13.5c3.12,0 6.16,-1.09 8.57,-3.07l0.38,-0.32l-9.4,-9.4z" />
		</g>
	</g>
</svg>
