<svg xmlns="http://www.w3.org/2000/svg" viewBox="0 0 27 27" width="27" height="27">
	<defs>
		<clipPath clipPathUnits="userSpaceOnUse" id="cp1">
			<path d="M0,27h27v-27h-27z" />
		</clipPath>
	</defs>
	<style>
		tspan { white-space:pre }
		.shp0 { fill: #000000 }
	</style>
	<g id="Mask Group 33" clip-path="url(#cp1)">
		<g id="dish-knife-and-fork">
			<g id="Layer_1_144_">
				<g id="Group 53">
					<path id="Path 80" class="shp0" d="M12.39,23.18c0.36,0.06 0.72,0.06 1.13,0.06c0.42,0 0.84,0 1.25,-0.06l0.18,-5.85c-0.36,-0.18 -0.72,-0.42 -1.02,-0.72c-0.54,-0.6 -0.84,-1.37 -0.78,-2.21l0.3,-4c-0.36,0.48 -0.84,0.84 -1.43,1.08z" />
					<path id="Path 81" class="shp0" d="M20.94,2.33v2.57c2.45,2.09 4,5.2 4,8.66c0,3.46 -1.55,6.57 -4,8.66v2.57c3.64,-2.39 6.03,-6.51 6.03,-11.23c0,-4.72 -2.39,-8.84 -6.03,-11.23z" />
					<path id="Path 82" class="shp0" d="M13.95,1.43v0.66c0.06,0 0.12,0 0.24,0c0.24,-0.78 0.72,-1.43 1.37,-1.91c-0.66,-0.12 -1.37,-0.18 -2.03,-0.18c-0.06,0 -0.18,0 -0.24,0c0.36,0.42 0.66,0.9 0.66,1.43z" />
					<path id="Path 83" class="shp0" d="M20.94,7.35v1.08v7.94v3.35c1.43,-1.67 2.27,-3.82 2.27,-6.21c-0.06,-2.27 -0.84,-4.48 -2.27,-6.15z" />
					<path id="Path 84" class="shp0" d="M4.93,9.02c-0.72,1.37 -1.13,2.87 -1.13,4.48c0,2.57 1.02,4.9 2.63,6.63l0.3,-8.78c-0.96,-0.3 -1.67,-1.19 -1.79,-2.33z" />
					<path id="Path 85" class="shp0" d="M14.66,25.09v-0.18c-0.42,0.06 -0.78,0.06 -1.19,0.06c-0.36,0 -0.72,0 -1.08,-0.06v0.18c0,0.66 -0.24,1.31 -0.66,1.79c0.54,0.06 1.13,0.12 1.67,0.12c0.6,0 1.19,-0.06 1.79,-0.12c-0.3,-0.48 -0.54,-1.13 -0.54,-1.79z" />
					<path id="Path 86" class="shp0" d="M2.06,13.56c0,-2.87 1.08,-5.56 2.87,-7.53v-2.87c-2.99,2.45 -4.9,6.21 -4.9,10.39c0,4.78 2.51,9.02 6.27,11.41l0.06,-2.45c-2.57,-2.09 -4.3,-5.38 -4.3,-8.96z" />
					<path id="Path 87" class="shp0" d="M18.13,0.54v0c-1.55,0 -2.87,1.19 -2.99,2.75l-0.78,11.17c-0.06,0.48 0.12,0.96 0.48,1.31c0.36,0.36 0.78,0.6 1.31,0.6h0.06l-0.3,8.78c0,0.36 0.12,0.72 0.42,1.02c0.24,0.3 0.6,0.42 1.02,0.42h1.02c0.78,0 1.37,-0.66 1.37,-1.37v-8.84v-7.94v-6.27c0,-0.9 -0.72,-1.61 -1.61,-1.61z" />
					<path id="Path 88" class="shp0" d="M10.84,10.39h0.3c0.9,0 1.67,-0.72 1.67,-1.61v-7.35c0,-0.3 -0.24,-0.54 -0.54,-0.54h-0.12c-0.3,0 -0.48,0.24 -0.48,0.54v4.84c0,0.42 -0.36,0.78 -0.78,0.78h-0.12c-0.42,0 -0.78,-0.36 -0.78,-0.78v-4.84c0,-0.3 -0.24,-0.54 -0.48,-0.54h-0.12c-0.3,0 -0.54,0.24 -0.54,0.54v4.84c0,0.42 -0.36,0.78 -0.78,0.78h-0.12c-0.42,0 -0.78,-0.36 -0.78,-0.78v-4.84c0,-0.3 -0.24,-0.54 -0.48,-0.54h-0.12c-0.3,0 -0.48,0.24 -0.48,0.54v7.35c0,0.9 0.72,1.61 1.61,1.61h0.24l-0.48,14.75c0,0.36 0.12,0.72 0.36,1.02c0.24,0.24 0.6,0.42 0.96,0.42h1.08c0.36,0 0.72,-0.18 0.96,-0.42c0.24,-0.24 0.42,-0.66 0.36,-1.02z" />
				</g>
			</g>
		</g>
	</g>
</svg>
