<svg xmlns="http://www.w3.org/2000/svg" viewBox="0 0 27 27" width="27" height="27">
	<defs>
		<clipPath clipPathUnits="userSpaceOnUse" id="cp1">
			<path d="M0,27h27v-27h-27z" />
		</clipPath>
	</defs>
	<style>
		tspan { white-space:pre }
		.shp0 { fill: #000000 }
	</style>
	<g id="Mask Group 11" clip-path="url(#cp1)">
		<g id="relatory">
			<g id="Group 33">
				<g id="Group 32">
					<path id="Path 37" class="shp0" d="M26.3,11.85l-5.74,5.74v7.03c0,1.31 -1.06,2.37 -2.37,2.37h-15.82c-1.31,0 -2.37,-1.06 -2.37,-2.37v-22.25c0,-1.31 1.06,-2.37 2.37,-2.37h13.58c0.63,0 1.23,0.25 1.68,0.69l2.24,2.24c0.45,0.45 0.69,1.04 0.69,1.68v6.27c0.28,-0.28 2.1,-2.1 2.38,-2.38c0.93,-0.93 2.43,-0.93 3.36,0c0.93,0.93 0.93,2.43 0,3.36zM15.82,4.75h3.16c0,-0.17 0.02,-0.44 -0.23,-0.69l-2.24,-2.24c-0.26,-0.26 -0.55,-0.23 -0.69,-0.23zM18.99,19.18l-0.1,0.1c-0.09,0.09 -0.19,0.15 -0.31,0.19l-3.36,1.12c-0.28,0.09 -0.6,0.02 -0.81,-0.19c-0.21,-0.21 -0.29,-0.53 -0.19,-0.81l1.12,-3.36c0.04,-0.12 0.1,-0.22 0.19,-0.31l1.12,-1.12l2.33,-2.34v-6.13h-3.96c-0.44,0 -0.79,-0.35 -0.79,-0.79v-3.95h-11.87c-0.44,0 -0.79,0.35 -0.79,0.79v22.25c0,0.44 0.35,0.79 0.79,0.79h15.82c0.44,0 0.79,-0.35 0.79,-0.79zM16.78,16.9l-0.56,1.68l1.68,-0.56l0.43,-0.43l-1.12,-1.12zM23.25,12.67l-1.12,-1.12c-0.56,0.56 -3.21,3.21 -3.8,3.81l1.12,1.12zM25.18,9.62c-0.31,-0.31 -0.81,-0.31 -1.12,0l-0.82,0.82l1.12,1.12l0.82,-0.82c0.31,-0.31 0.31,-0.81 0,-1.12z" />
				</g>
			</g>
			<g id="Group 35">
				<g id="Group 34">
					<path id="Path 38" class="shp0" d="M15.03,7.91h-11.07c-0.44,0 -0.79,0.35 -0.79,0.79c0,0.44 0.35,0.79 0.79,0.79h11.07c0.44,0 0.79,-0.35 0.79,-0.79c0,-0.44 -0.35,-0.79 -0.79,-0.79z" />
				</g>
			</g>
			<g id="Group 37">
				<g id="Group 36">
					<path id="Path 39" class="shp0" d="M11.87,11.07h-7.91c-0.44,0 -0.79,0.35 -0.79,0.79c0,0.44 0.35,0.79 0.79,0.79h7.91c0.44,0 0.79,-0.35 0.79,-0.79c0,-0.44 -0.35,-0.79 -0.79,-0.79z" />
				</g>
			</g>
			<g id="Group 39">
				<g id="Group 38">
					<path id="Path 40" class="shp0" d="M11.87,14.24h-7.91c-0.44,0 -0.79,0.35 -0.79,0.79c0,0.44 0.35,0.79 0.79,0.79h7.91c0.44,0 0.79,-0.35 0.79,-0.79c0,-0.44 -0.35,-0.79 -0.79,-0.79z" />
				</g>
			</g>
			<g id="Group 41">
				<g id="Group 40">
					<path id="Path 41" class="shp0" d="M11.87,17.4h-7.91c-0.44,0 -0.79,0.35 -0.79,0.79c0,0.44 0.35,0.79 0.79,0.79h7.91c0.44,0 0.79,-0.35 0.79,-0.79c0,-0.44 -0.35,-0.79 -0.79,-0.79z" />
				</g>
			</g>
			<g id="Group 43">
				<g id="Group 42">
					<path id="Path 42" class="shp0" d="M15.03,22.25h-4.75c-0.44,0 -0.79,0.35 -0.79,0.79c0,0.44 0.35,0.79 0.79,0.79h4.75c0.44,0 0.79,-0.35 0.79,-0.79c0,-0.44 -0.35,-0.79 -0.79,-0.79z" />
				</g>
			</g>
		</g>
	</g>
</svg>
