<svg xmlns="http://www.w3.org/2000/svg" xmlns:xlink="http://www.w3.org/1999/xlink" viewBox="0 0 559 696.335">
  <defs>
    <style>
      .cls-1 {
        fill: none;
      }

      .cls-2 {
        fill: #ffeee5;
      }

      .cls-3 {
        fill: #f8f8f8;
      }

      .cls-4 {
        fill: #f6f6f6;
      }

      .cls-5 {
        fill: #9cc283;
      }

      .cls-6 {
        clip-path: url(#clip-path);
      }

      .cls-7, .cls-9 {
        fill: #ebebeb;
      }

      .cls-8 {
        clip-path: url(#clip-path-2);
      }

      .cls-9 {
        opacity: 0.65;
      }

      .cls-10 {
        fill: url(#linear-gradient);
      }

      .cls-11 {
        fill: #edbf85;
        font-size: 52px;
        font-family: Roboto-Bold, Roboto;
        font-weight: 700;
      }

      .cls-12 {
        fill: #ffd0cb;
        opacity: 0.38;
      }
    </style>
    <clipPath id="clip-path">
      <rect class="cls-1" width="265" height="71"/>
    </clipPath>
    <clipPath id="clip-path-2">
      <rect class="cls-1" width="177" height="164"/>
    </clipPath>
    <linearGradient id="linear-gradient" x1="0.643" y1="0.207" x2="0.54" y2="0.349" gradientUnits="objectBoundingBox">
      <stop offset="0" stop-color="#96af86"/>
      <stop offset="1" stop-color="#9cc283"/>
    </linearGradient>
  </defs>
  <g id="Group_1" data-name="Group 1" transform="translate(-121 -58)">
    <path id="Path_1" data-name="Path 1" class="cls-2" d="M0,0H284V53.815c0,78.509-54.029,117.52-131.349,117.52H127.207C49.887,171.335,0,132.324,0,53.815Z" transform="translate(258 583)"/>
    <circle id="Ellipse_2" data-name="Ellipse 2" cx="20" cy="20" r="20" transform="translate(295 644)"/>
    <circle id="Ellipse_11" data-name="Ellipse 11" cx="20" cy="20" r="20" transform="translate(466 644)"/>
    <path id="Rectangle_1" data-name="Rectangle 1" d="M0,0H57a0,0,0,0,1,0,0V12.5A28.5,28.5,0,0,1,28.5,41h0A28.5,28.5,0,0,1,0,12.5V0A0,0,0,0,1,0,0Z" transform="translate(372 691)"/>
    <rect id="Rectangle_3" data-name="Rectangle 3" class="cls-3" width="264" height="183" transform="translate(267 353)"/>
    <rect id="Rectangle_2" data-name="Rectangle 2" class="cls-4" width="300" height="90" rx="5" transform="translate(249 517)"/>
    <circle id="Ellipse_4" data-name="Ellipse 4" class="cls-5" cx="90" cy="90" r="90" transform="translate(186 90)"/>
    <circle id="Ellipse_5" data-name="Ellipse 5" class="cls-5" cx="90" cy="90" r="90" transform="translate(433 90)"/>
    <circle id="Ellipse_6" data-name="Ellipse 6" class="cls-5" cx="95.5" cy="95.5" r="95.5" transform="translate(489 162)"/>
    <circle id="Ellipse_7" data-name="Ellipse 7" class="cls-5" cx="95.5" cy="95.5" r="95.5" transform="translate(121 162)"/>
    <rect id="Rectangle_4" data-name="Rectangle 4" class="cls-5" width="374" height="87" transform="translate(206 266)"/>
    <circle id="Ellipse_3" data-name="Ellipse 3" class="cls-5" cx="132" cy="132" r="132" transform="translate(267 58)"/>
    <g id="Repeat_Grid_1" data-name="Repeat Grid 1" class="cls-6" transform="translate(267 536)">
      <g transform="translate(-267 -536)">
        <rect id="Rectangle_5" data-name="Rectangle 5" class="cls-7" width="5" height="71" transform="translate(267 536)"/>
      </g>
      <g transform="translate(-215 -536)">
        <rect id="Rectangle_5-2" data-name="Rectangle 5" class="cls-7" width="5" height="71" transform="translate(267 536)"/>
      </g>
      <g transform="translate(-163 -536)">
        <rect id="Rectangle_5-3" data-name="Rectangle 5" class="cls-7" width="5" height="71" transform="translate(267 536)"/>
      </g>
      <g transform="translate(-111 -536)">
        <rect id="Rectangle_5-4" data-name="Rectangle 5" class="cls-7" width="5" height="71" transform="translate(267 536)"/>
      </g>
      <g transform="translate(-59 -536)">
        <rect id="Rectangle_5-5" data-name="Rectangle 5" class="cls-7" width="5" height="71" transform="translate(267 536)"/>
      </g>
      <g transform="translate(-7 -536)">
        <rect id="Rectangle_5-6" data-name="Rectangle 5" class="cls-7" width="5" height="71" transform="translate(267 536)"/>
      </g>
    </g>
    <g id="Repeat_Grid_2" data-name="Repeat Grid 2" class="cls-8" transform="translate(312 353)">
      <g transform="translate(-310 -353)">
        <path id="Rectangle_6" data-name="Rectangle 6" class="cls-9" d="M4.5,0h0A4.5,4.5,0,0,1,9,4.5V142a0,0,0,0,1,0,0H0a0,0,0,0,1,0,0V4.5A4.5,4.5,0,0,1,4.5,0Z" transform="translate(310 375)"/>
      </g>
      <g transform="translate(-226 -353)">
        <path id="Rectangle_6-2" data-name="Rectangle 6" class="cls-9" d="M4.5,0h0A4.5,4.5,0,0,1,9,4.5V142a0,0,0,0,1,0,0H0a0,0,0,0,1,0,0V4.5A4.5,4.5,0,0,1,4.5,0Z" transform="translate(310 375)"/>
      </g>
      <g transform="translate(-142 -353)">
        <path id="Rectangle_6-3" data-name="Rectangle 6" class="cls-9" d="M4.5,0h0A4.5,4.5,0,0,1,9,4.5V142a0,0,0,0,1,0,0H0a0,0,0,0,1,0,0V4.5A4.5,4.5,0,0,1,4.5,0Z" transform="translate(310 375)"/>
      </g>
    </g>
    <ellipse id="Ellipse_9" data-name="Ellipse 9" class="cls-10" cx="90" cy="91" rx="90" ry="91" transform="translate(433 88)"/>
    <ellipse id="Ellipse_10" data-name="Ellipse 10" class="cls-10" cx="90" cy="91" rx="90" ry="91" transform="translate(186 88)"/>
    <text id="_4FIT" data-name="4FIT" class="cls-11" transform="translate(415.5 392.5) rotate(90)"><tspan x="0" y="0">4FIT</tspan></text>
    <ellipse id="Ellipse_12" data-name="Ellipse 12" class="cls-12" cx="19" cy="7" rx="19" ry="7" transform="translate(296 698)"/>
    <ellipse id="Ellipse_13" data-name="Ellipse 13" class="cls-12" cx="19" cy="7" rx="19" ry="7" transform="translate(467 698)"/>
  </g>
</svg>
